<svg width="1280" height="720" xmlns="http://www.w3.org/2000/svg" xmlns:xlink="http://www.w3.org/1999/xlink" overflow="hidden"><defs><clipPath id="clip0"><rect x="0" y="0" width="1280" height="720"/></clipPath><linearGradient x1="887.097" y1="421.229" x2="1049.76" y2="742.635" gradientUnits="userSpaceOnUse" spreadMethod="reflect" id="fill1"><stop offset="0" stop-color="#F2F2F2"/><stop offset="0.22" stop-color="#BFBFBF"/><stop offset="0.53" stop-color="#FFFFFF"/><stop offset="1" stop-color="#FFFFFF"/></linearGradient><linearGradient x1="601.926" y1="15.4319" x2="917.075" y2="564.568" gradientUnits="userSpaceOnUse" spreadMethod="reflect" id="fill2"><stop offset="0" stop-color="#FC8B0D"/><stop offset="0.15" stop-color="#FFFFFF" stop-opacity="0.490196"/><stop offset="0.53" stop-color="#FFFFFF"/><stop offset="1" stop-color="#FFFFFF"/></linearGradient></defs><g clip-path="url(#clip0)"><rect x="0" y="0" width="1280" height="720" fill="#FFFFFF"/><path d="M828.418 682.865C742.788 633.153 750.639 556.65 845.953 511.989 938.838 468.467 1081.11 471.094 1167.86 517.932L1001 602Z" fill="url(#fill1)" fill-rule="evenodd"/><path d="M828.418 682.865C742.788 633.153 750.639 556.65 845.953 511.989 938.838 468.467 1081.11 471.094 1167.86 517.932" stroke="#7F7F7F" stroke-width="2" stroke-miterlimit="8" stroke-dasharray="8 6" fill="none" fill-rule="evenodd"/><rect x="441.5" y="107.5" width="636" height="365" stroke="#FC8B0D" stroke-width="2.66667" stroke-miterlimit="8" fill="url(#fill2)"/><path d="M561.5 258C561.5 234.528 580.528 215.5 604 215.5 627.472 215.5 646.5 234.528 646.5 258 646.5 281.472 627.472 300.5 604 300.5 580.528 300.5 561.5 281.472 561.5 258Z" stroke="#767171" stroke-width="3" stroke-miterlimit="8" stroke-dasharray="3 3" fill="none" fill-rule="evenodd"/><rect x="415.5" y="232.5" width="150" height="52" stroke="#000000" stroke-width="2.66667" stroke-miterlimit="8" fill="#FFFFFF"/><text font-family="Calibri,Calibri_MSFontService,sans-serif" font-weight="400" font-size="24" transform="translate(463.162 265)">Proxy</text><path d="M769.5 258C769.5 190.897 821.435 136.5 885.5 136.5 949.565 136.5 1001.5 190.897 1001.5 258 1001.5 325.103 949.565 379.5 885.5 379.5 821.435 379.5 769.5 325.103 769.5 258Z" stroke="#767171" stroke-width="3" stroke-miterlimit="8" stroke-dasharray="3 3" fill="none" fill-rule="evenodd"/><rect x="640.5" y="232.5" width="151" height="52" stroke="#000000" stroke-width="2.66667" stroke-miterlimit="8"/><text fill="#FFFFFF" font-family="Calibri,Calibri_MSFontService,sans-serif" font-weight="400" font-size="24" transform="translate(696.127 265)">App</text><rect x="869.5" y="232.5" width="151" height="52" stroke="#000000" stroke-width="2.66667" stroke-miterlimit="8" fill="#FFFFFF"/><text font-family="Calibri,Calibri_MSFontService,sans-serif" font-weight="400" font-size="24" transform="translate(899.358 265)">Database<tspan fill="#FC8B0D" font-family="Trebuchet MS,Trebuchet MS_MSFontService,sans-serif" font-weight="700" font-size="32" x="-234.548" y="-173">Chembience</tspan><tspan font-weight="700" font-size="32" x="-790.758" y="-153">User/Client</tspan><tspan font-size="11" x="-346.921" y="-58">Docker Virtual Network</tspan><tspan font-size="11" x="60.4146" y="-107">Docker Virtual Network</tspan><tspan font-size="11" x="89.5812" y="-94">(Backend)</tspan><tspan font-size="11" x="-448.147" y="36">Docker Container</tspan><tspan font-size="11" x="-221.792" y="36">Docker Container</tspan><tspan font-size="11" x="5.33032" y="36">Docker Container</tspan><tspan font-size="24" x="-787.841" y="-20">Web Browser</tspan><tspan font-size="24" x="-791.128" y="9">API Consumer</tspan></text><path d="M6.67132-0.795515 142.686-0.0241961 142.676 1.64244 6.66186 0.871125ZM7.97719 4.0453 0 0 8.02255-3.95457ZM141.371-3.19837 149.348 0.846929 141.325 4.8015Z" transform="matrix(1 0 0 -1 256 251.847)"/><text font-family="Calibri,Calibri_MSFontService,sans-serif" font-style="italic" font-weight="400" font-size="13" transform="translate(320.496 240)">https</text><path d="M177 184 717.48 184" stroke="#404040" stroke-width="1.66667" stroke-miterlimit="8" stroke-dasharray="5 1.66667" fill="none" fill-rule="evenodd"/><path d="M0.833354 6.66666 0.833369 11.6667-0.833297 11.6667-0.833313 6.66667ZM0.833375 13.3333 0.83339 18.3333-0.833277 18.3333-0.833292 13.3333ZM0.833395 20 0.833411 25-0.833256 25-0.833271 20ZM0.833416 26.6667 0.833431 31.6667-0.833235 31.6667-0.833251 26.6667ZM0.833436 33.3333 0.833438 33.9281-0.833228 33.9281-0.83323 33.3333ZM-3.99998 8.00001 0 0 4.00002 7.99999Z" fill="#404040" transform="matrix(1 0 0 -1 177 217.928)"/><path d="M0.833354 6.66666 0.833369 11.6667-0.833297 11.6667-0.833313 6.66667ZM0.833375 13.3333 0.83339 18.3333-0.833277 18.3333-0.833292 13.3333ZM0.833395 20 0.833411 25-0.833256 25-0.833271 20ZM0.833416 26.6667 0.833431 31.6667-0.833235 31.6667-0.833251 26.6667ZM0.833436 33.3333 0.833438 33.9281-0.833228 33.9281-0.83323 33.3333ZM-3.99998 8.00001 0 0 4.00002 7.99999Z" fill="#404040" transform="matrix(1 0 0 -1 716 217.928)"/><text fill="#7F7F7F" font-family="Calibri,Calibri_MSFontService,sans-serif" font-style="italic" font-weight="400" font-size="13" transform="translate(243.4 174)">http<tspan font-size="13" x="25.6667" y="0">(</tspan>local<tspan font-size="13" x="57.8333" y="0">system</tspan><tspan font-size="13" x="95.5" y="0">)</tspan><tspan fill="#000000" font-style="normal" font-weight="700" font-size="32" x="604.121" y="428">Developer</tspan></text><path d="M885 360.625C885 363.732 910.967 366.25 943 366.25 975.033 366.25 1001 363.732 1001 360.625L1001 394.375C1001 397.482 975.033 400 943 400 910.967 400 885 397.482 885 394.375Z" fill="#FFFFFF" fill-rule="evenodd"/><path d="M885 360.625C885 357.518 910.967 355 943 355 975.033 355 1001 357.518 1001 360.625 1001 363.732 975.033 366.25 943 366.25 910.967 366.25 885 363.732 885 360.625Z" fill="#FFFFFF" fill-rule="evenodd"/><path d="M1001 360.625C1001 363.732 975.033 366.25 943 366.25 910.967 366.25 885 363.732 885 360.625 885 357.518 910.967 355 943 355 975.033 355 1001 357.518 1001 360.625L1001 394.375C1001 397.482 975.033 400 943 400 910.967 400 885 397.482 885 394.375L885 360.625" stroke="#000000" stroke-width="2" stroke-miterlimit="8" fill="none" fill-rule="evenodd"/><text font-family="Calibri,Calibri_MSFontService,sans-serif" font-weight="400" font-size="11" transform="translate(909.873 417)">Docker Volume<tspan font-size="16" x="6.60693" y="-30">PGDATA</tspan></text><path d="M945.167 318.167 945.167 339.261 943.833 339.261 943.833 318.167ZM940.5 319.5 944.5 311.5 948.5 319.5ZM948.5 337.927 944.5 345.927 940.5 337.927Z" fill="#262626"/><rect x="880.5" y="459.5" width="158" height="33" stroke="#000000" stroke-width="1.33333" stroke-miterlimit="8"/><path d="M894.989 463.293 946.222 463.293 946.222 486.293 894.989 486.293Z" fill-rule="evenodd"/><path d="M946.222 463.293 951.889 463.293 951.889 486.293 946.222 486.293Z" fill-rule="evenodd"/><path d="M951.889 463.293 1020.57 463.293 1020.57 486.293 951.889 486.293Z" fill-rule="evenodd"/><text fill="#F2F2F2" font-family="Calibri,Calibri_MSFontService,sans-serif" font-weight="400" font-size="19" transform="translate(894.989 481)">docker-<tspan font-size="19" x="56.9" y="0">compose</tspan><tspan fill="#000000" font-size="21" x="-638.184" y="-36">Let‘s</tspan><tspan fill="#000000" font-size="21" x="-593.337" y="-36">Encrypt</tspan><tspan fill="#000000" font-style="italic" font-size="13" x="-571.07" y="-126">SSL </tspan><tspan fill="#000000" font-style="italic" font-size="13" x="-550.404" y="-126">certificate</tspan></text><path d="M311 409.533 311 407.533 313 407.533 313 409.533ZM311 405.533 311 403.533 313 403.533 313 405.533ZM311 401.533 311 399.533 313 399.533 313 401.533ZM311 397.533 311 395.533 313 395.533 313 397.533ZM311 393.533 311 391.533 313 391.533 313 393.533ZM311 389.533 311 387.533 313 387.533 313 389.533ZM311 385.533 311 383.533 313 383.533 313 385.533ZM311 381.533 311 379.533 313 379.533 313 381.533ZM311 377.533 311 375.533 313 375.533 313 377.533ZM311 373.533 311 371.533 313 371.533 313 373.533ZM311 369.533 311 367.533 313 367.533 313 369.533ZM311 365.533 311 363.533 313 363.533 313 365.533ZM311 361.533 311 359.533 313 359.533 313 361.533ZM311 357.533 311 355.533 313 355.533 313 357.533ZM311 353.533 311 351.533 313 351.533 313 353.533ZM311 349.533 311 347.533 313 347.533 313 349.533ZM311 345.533 311 343.533 313 343.533 313 345.533ZM311 341.533 311 339.533 313 339.533 313 341.533ZM311 337.533 311 335.533 313 335.533 313 337.533ZM311 333.533 311 331.533 313 331.533 313 333.533ZM311 329.533 311 327.533 313 327.533 313 329.533ZM311 325.533 311 323.533 313 323.533 313 325.533ZM311 321.533 311 319.533 313 319.533 313 321.533ZM311 317.533 311 315.533 313 315.533 313 317.533ZM311 313.533 311 311.533 313 311.533 313 313.533ZM311 309.533 311 307.533 313 307.533 313 309.533ZM311 305.533 311 303.533 313 303.533 313 305.533ZM311 301.533 311 299.533 313 299.533 313 301.533ZM311 297.533 311 295.533 313 295.533 313 297.533ZM311 293.533 311 291.533 313 291.533 313 293.533ZM311 289.533 311 287.533 313 287.533 313 289.533ZM311 285.533 311 283.533 313 283.533 313 285.533ZM311 281.533 311 279.533 313 279.533 313 281.533ZM311 277.533 311 275.533 313 275.533 313 277.533ZM312.467 273 314.467 273 314.467 275 312.467 275ZM316.467 273 318.467 273 318.467 275 316.467 275ZM320.467 273 322.467 273 322.467 275 320.467 275ZM324.467 273 326.467 273 326.467 275 324.467 275ZM328.467 273 330.467 273 330.467 275 328.467 275ZM332.467 273 334.467 273 334.467 275 332.467 275ZM336.467 273 338.467 273 338.467 275 336.467 275ZM340.467 273 342.467 273 342.467 275 340.467 275ZM344.467 273 346.467 273 346.467 275 344.467 275ZM348.467 273 350.467 273 350.467 275 348.467 275ZM352.467 273 354.467 273 354.467 275 352.467 275ZM356.467 273 358.467 273 358.467 275 356.467 275ZM360.467 273 362.467 273 362.467 275 360.467 275ZM364.467 273 366.467 273 366.467 275 364.467 275ZM368.467 273 370.467 273 370.467 275 368.467 275ZM372.467 273 374.467 273 374.467 275 372.467 275ZM376.467 273 378.467 273 378.467 275 376.467 275ZM380.467 273 382.467 273 382.467 275 380.467 275ZM384.467 273 386.467 273 386.467 275 384.467 275ZM388.467 273 390.467 273 390.467 275 388.467 275ZM392.467 273 394.467 273 394.467 275 392.467 275ZM396.467 273 397.726 273 397.726 275 396.467 275ZM316 408.199 312 416.199 308 408.199ZM396.393 270 404.393 274 396.393 278Z"/><text font-family="Calibri,Calibri_MSFontService,sans-serif" font-weight="400" font-size="11" transform="matrix(-1.83697e-16 -1 1 -1.83697e-16 632.838 273)">Nginx</text><text font-family="Calibri,Calibri_MSFontService,sans-serif" font-weight="400" font-size="11" transform="translate(476.563 224)">Nginx<tspan font-weight="700" font-size="16" x="614.015" y="11">Dockerhub.</tspan><tspan font-weight="700" font-size="16" x="690.741" y="11">com</tspan><tspan font-size="11" x="433.762" y="-13">Postgres</tspan><tspan font-size="11" x="473.096" y="-13">with</tspan><tspan font-size="11" x="429.929" y="0">RDKit</tspan><tspan font-size="11" x="456.096" y="0">extension</tspan></text><rect x="1118.5" y="251.5" width="54" height="19" stroke="#000000" stroke-width="1.33333" stroke-miterlimit="8" fill="#FFFFFF"/><text font-family="Calibri,Calibri_MSFontService,sans-serif" font-weight="400" font-size="11" transform="translate(1122.96 289)">(<tspan font-size="11" x="3.16663" y="0">pre</tspan><tspan font-size="11" x="17.8334" y="0">-</tspan><tspan font-size="11" x="21.1666" y="0">built</tspan><tspan font-size="11" x="41" y="0">)</tspan><tspan font-size="11" x="-5" y="13">Chembience</tspan><tspan font-size="11" x="6.83337" y="26">Docker </tspan><tspan font-size="11" x="6.66663" y="38">Images</tspan></text><path d="M6.95513e-07-0.5 1-0.499999 0.999999 0.500001-6.95513e-07 0.5ZM2-0.499997 3-0.499996 3 0.500004 2 0.500003ZM4-0.499994 5-0.499993 5 0.500007 4 0.500006ZM6-0.499992 7-0.49999 7 0.50001 6 0.500008ZM8-0.499989 9-0.499987 9 0.500013 8 0.500011ZM10-0.499986 11-0.499985 11 0.500015 10 0.500014ZM12-0.499983 13-0.499982 13 0.500018 12 0.500017ZM14-0.499981 15-0.499979 15 0.500021 14 0.500019ZM16-0.499978 17-0.499976 17 0.500024 16 0.500022ZM18-0.499975 19-0.499974 19 0.500026 18 0.500025ZM20-0.499972 21-0.499971 21 0.500029 20 0.500028ZM22-0.499969 23-0.499968 23 0.500032 22 0.500031ZM24-0.499967 25-0.499965 25 0.500035 24 0.500033ZM26-0.499964 27-0.499962 27 0.500038 26 0.500036ZM28-0.499961 29-0.49996 29 0.50004 28 0.500039ZM30-0.499958 31-0.499957 31 0.500043 30 0.500042ZM32-0.499955 33-0.499954 33 0.500046 32 0.500044ZM34-0.499953 35-0.499951 35 0.500049 34 0.500047ZM36-0.49995 37-0.499949 37 0.500051 36 0.50005ZM38-0.499947 39-0.499946 39 0.500054 38 0.500053ZM40-0.499944 41-0.499943 41 0.500057 40 0.500056ZM42-0.499942 43-0.49994 43 0.50006 42 0.500058ZM44-0.499939 45-0.499937 45 0.500063 44 0.500061ZM46-0.499936 47-0.499935 47 0.500065 46 0.500064ZM48-0.499933 49-0.499932 49 0.500068 48 0.500067ZM50-0.49993 51-0.499929 51 0.500071 50 0.50007ZM52-0.499928 53-0.499926 53 0.500074 52 0.500072ZM54-0.499925 55-0.499923 55 0.500076 54 0.500075ZM56-0.499922 57-0.499921 57 0.500079 56 0.500078ZM58-0.499919 59-0.499918 59 0.500082 58 0.500081ZM60-0.499917 61-0.499915 61 0.500085 60 0.500083ZM62-0.499914 63-0.499912 63 0.500088 62 0.500086ZM64-0.499911 65-0.49991 65 0.50009 64 0.500089ZM66-0.499908 67-0.499907 67 0.500093 66 0.500092ZM68-0.499905 68.8078-0.499904 68.8078 0.500096 68 0.500095ZM67.4744-3.99991 75.4744 0.000104987 67.4744 4.00009Z" fill="#404040" transform="matrix(-1 0 0 1 1118.97 261.5)"/><path d="M1145.5 335.5 1147.26 441.889" stroke="#404040" stroke-miterlimit="8" stroke-dasharray="1 1" fill="none" fill-rule="evenodd"/><path d="M0 0 171.986 0.129659" stroke="#000000" stroke-width="1.66667" stroke-miterlimit="8" stroke-dasharray="1.66667 1.66667" fill="none" fill-rule="evenodd" transform="matrix(1 0 0 -1 629 311.13)"/><path d="M0 0 0.333543 10.8945" stroke="#000000" stroke-width="1.66667" stroke-miterlimit="8" stroke-dasharray="1.66667 1.66667" fill="none" fill-rule="evenodd" transform="matrix(-1 0 0 1 800.334 300)"/><path d="M629 300 629 309.867" stroke="#000000" stroke-width="1.66667" stroke-miterlimit="8" stroke-dasharray="1.66667 1.66667" fill="none" fill-rule="evenodd"/><rect x="651.5" y="525.5" width="136" height="45" stroke="#000000" stroke-width="1.33333" stroke-miterlimit="8"/><text fill="#FFFFFF" font-family="Calibri,Calibri_MSFontService,sans-serif" font-weight="400" font-size="19" transform="translate(668.829 554)">Django<tspan font-size="19" x="53.3734" y="0">-</tspan><tspan font-size="19" x="59.04" y="0">RDKit</tspan></text><rect x="651.5" y="577.5" width="136" height="46" stroke="#000000" stroke-width="1.33333" stroke-miterlimit="8"/><text fill="#FFFFFF" font-family="Calibri,Calibri_MSFontService,sans-serif" font-weight="400" font-size="19" transform="translate(667.449 606)">Jupyter<tspan font-size="19" x="56.1333" y="0">-</tspan><tspan font-size="19" x="61.8" y="0">RDKit</tspan></text><rect x="651.5" y="629.5" width="136" height="46" stroke="#000000" stroke-width="1.33333" stroke-miterlimit="8"/><text fill="#FFFFFF" font-family="Calibri,Calibri_MSFontService,sans-serif" font-weight="400" font-size="19" transform="translate(698.349 658)">RDKit</text><path d="M642 517 797.25 517" stroke="#000000" stroke-width="1.66667" stroke-miterlimit="8" stroke-dasharray="1.66667 1.66667" fill="none" fill-rule="evenodd"/><path d="M0 0 0.000104987 19.3804" stroke="#000000" stroke-width="1.66667" stroke-miterlimit="8" stroke-dasharray="1.66667 1.66667" fill="none" fill-rule="evenodd" transform="matrix(1 0 0 -1 798 536.38)"/><path d="M0 0 0.000104987 19.3804" stroke="#000000" stroke-width="1.66667" stroke-miterlimit="8" stroke-dasharray="1.66667 1.66667" fill="none" fill-rule="evenodd" transform="matrix(1 0 0 -1 641 536.38)"/><path d="M716 311 716 516.768" stroke="#000000" stroke-width="1.66667" stroke-miterlimit="8" stroke-dasharray="1.66667 1.66667" fill="none" fill-rule="evenodd"/><text font-family="Calibri,Calibri_MSFontService,sans-serif" font-style="italic" font-weight="400" font-size="13" transform="translate(478.737 595)">Available<tspan font-size="13" x="52.5" y="0">Template Apps </tspan><tspan font-size="13" x="0" y="16">(&amp;</tspan><tspan font-size="13" x="16.1667" y="16">pre</tspan><tspan font-size="13" x="33.8333" y="16">-</tspan>built<tspan font-size="13" x="65" y="16">Docker Images)</tspan></text><path d="M1125.65 488.216C1112.7 507.025 1087.15 511.654 1068.57 498.556 1049.99 485.457 1045.41 459.592 1058.35 440.784 1071.3 421.975 1096.85 417.346 1115.43 430.444 1119.95 433.629 1123.79 437.701 1126.71 442.419L1092 464.5Z" fill="#FFFFFF" fill-rule="evenodd"/><path d="M1126.58 489.002 1121.13 495.469 1114.57 500.613 1107.24 504.342 1099.48 506.521 1095.47 507.039 1091.42 507.168 1087.37 506.911 1083.32 506.269 1079.33 505.239 1075.4 503.757 1071.61 501.828 1067.93 499.503 1061.46 493.93 1056.38 487.307 1052.72 479.919 1050.54 472.114 1049.96 467.975 1049.83 463.92 1050.09 459.811 1050.73 455.695 1051.82 451.65 1053.24 447.735 1055.1 443.874 1057.43 440.125 1062.94 433.594 1069.49 428.449 1076.82 424.72 1084.58 422.541 1088.59 422.023 1092.64 421.895 1096.69 422.152 1100.74 422.794 1104.73 423.824 1108.66 425.306 1112.45 427.235 1116.14 429.561 1122.54 435.131 1123.57 436.461 1121.73 437.895 1120.77 436.654 1120.92 436.818 1114.67 431.38 1114.81 431.486 1111.25 429.236 1111.35 429.29 1107.66 427.415 1107.78 427.467 1103.96 426.029 1104.08 426.067 1100.21 425.067 1100.32 425.09 1096.38 424.465 1096.49 424.477 1092.55 424.227 1092.66 424.229 1088.72 424.354 1088.84 424.345 1084.96 424.845 1085.13 424.811 1077.57 426.936 1077.78 426.852 1070.65 430.477 1070.84 430.355 1064.47 435.355 1064.64 435.19 1059.27 441.565 1059.37 441.428 1057.12 445.053 1057.18 444.945 1055.36 448.695 1055.41 448.583 1054.03 452.396 1054.06 452.304 1053 456.241 1053.03 456.118 1052.4 460.118 1052.41 460.01 1052.16 464.01 1052.17 463.9 1052.29 467.838 1052.28 467.713 1052.84 471.713 1052.81 471.562 1054.94 479.187 1054.86 478.982 1058.42 486.169 1058.3 485.977 1063.24 492.415 1063.07 492.241 1069.39 497.679 1069.25 497.576 1072.81 499.826 1072.72 499.773 1076.4 501.648 1076.29 501.596 1080.1 503.033 1079.98 502.995 1083.85 503.995 1083.75 503.973 1087.68 504.598 1087.57 504.586 1091.51 504.836 1091.4 504.834 1095.34 504.709 1095.23 504.718 1099.1 504.218 1098.93 504.252 1106.5 502.127 1106.28 502.21 1113.41 498.585 1113.22 498.707 1119.59 493.707 1119.42 493.873 1124.8 487.498ZM1124.99 433.668 1126.75 442.438 1118.68 438.584Z"/><text font-family="Calibri,Calibri_MSFontService,sans-serif" font-weight="700" font-size="16" transform="translate(1068.48 464)">Github<tspan font-size="16" x="49.3333" y="0">Actions</tspan><tspan font-weight="400" font-size="11" x="0" y="14">CD/CI</tspan><tspan fill="#7F7F7F" font-size="21" x="-100.106" y="78">Git</tspan><tspan fill="#7F7F7F" font-size="21" x="-73.9398" y="78">/GitHub</tspan><tspan font-style="italic" font-weight="400" font-size="11" x="-15.5992" y="96">Version Control &amp;</tspan><tspan font-style="italic" font-weight="400" font-size="11" x="-12.5992" y="109">Code Repository</tspan></text></g></svg>